<svg id="svg" version="1.1" xmlns="http://www.w3.org/2000/svg" xmlns:xlink="http://www.w3.org/1999/xlink" width="400" height="400" viewBox="0, 0, 400,400"><g id="svgg"><path id="path0" d="M202.706 80.681 C 196.795 82.652,195.254 85.856,194.857 97.000 C 194.641 103.063,194.505 104.189,194.000 104.133 C 193.670 104.096,192.320 103.763,191.000 103.393 C 189.680 103.023,187.700 102.486,186.600 102.200 C 185.500 101.914,183.520 101.381,182.200 101.016 C 179.926 100.387,177.560 99.749,168.850 97.418 C 163.617 96.018,163.327 96.445,166.065 101.516 C 168.027 105.151,168.807 106.717,171.588 112.600 C 172.731 115.020,174.102 117.903,174.633 119.006 C 175.165 120.109,175.600 121.236,175.600 121.511 C 175.600 121.786,175.771 122.323,175.981 122.705 C 176.970 124.511,179.218 130.404,180.976 135.800 C 181.764 138.220,182.603 140.740,182.840 141.400 C 183.077 142.060,183.419 143.140,183.600 143.800 C 183.782 144.460,184.237 146.080,184.612 147.400 C 186.786 155.055,188.800 168.417,188.800 175.186 C 188.800 182.088,187.221 189.665,184.088 197.800 C 183.007 200.606,177.617 211.608,176.877 212.516 C 176.661 212.782,175.985 213.900,175.375 215.000 C 173.353 218.650,171.197 222.127,166.818 228.800 C 163.189 234.331,162.757 234.153,180.361 234.400 L 194.600 234.600 194.706 245.500 L 194.813 256.400 178.706 256.396 C 161.418 256.391,161.007 256.350,156.792 254.234 C 150.036 250.840,145.600 243.330,145.600 235.285 C 145.600 233.101,145.461 232.432,144.967 232.243 C 144.619 232.109,130.935 232.000,114.557 232.000 L 84.780 232.000 84.355 233.100 C 84.085 233.798,84.023 235.881,84.186 238.800 C 85.289 258.564,95.864 277.865,111.834 289.259 C 116.763 292.777,122.985 296.065,129.000 298.332 C 131.070 299.113,138.477 300.892,141.400 301.311 C 145.681 301.924,256.211 302.182,259.800 301.587 C 268.190 300.195,276.212 294.970,283.029 286.457 C 284.904 284.116,286.655 281.930,286.919 281.600 C 287.672 280.661,293.262 272.164,295.603 268.400 C 296.766 266.530,298.501 263.802,299.459 262.338 C 300.416 260.874,301.200 259.583,301.200 259.470 C 301.200 259.161,305.650 252.750,306.663 251.600 C 307.147 251.050,307.871 250.228,308.272 249.773 C 310.846 246.848,317.446 242.415,324.400 238.938 C 331.314 235.481,330.802 236.323,330.791 228.430 C 330.780 220.040,330.531 219.498,327.146 220.491 C 325.966 220.837,323.920 221.422,322.600 221.792 C 321.280 222.162,319.750 222.615,319.200 222.800 C 318.650 222.985,317.120 223.429,315.800 223.787 C 314.480 224.146,312.860 224.627,312.200 224.858 C 311.540 225.088,310.280 225.430,309.400 225.617 C 308.520 225.804,306.720 226.316,305.400 226.755 C 304.080 227.193,302.280 227.725,301.400 227.936 C 300.520 228.147,297.640 228.971,295.000 229.768 C 292.360 230.565,289.210 231.492,288.000 231.828 C 285.893 232.413,282.522 233.380,280.400 234.009 C 279.850 234.172,278.410 234.594,277.200 234.946 C 275.990 235.298,273.523 236.039,271.718 236.593 C 269.913 237.147,268.220 237.600,267.955 237.600 C 267.690 237.600,264.037 240.982,259.837 245.115 C 253.132 251.712,251.834 252.806,249.200 254.079 C 244.402 256.396,244.369 256.400,230.465 256.400 L 217.587 256.400 217.694 245.500 L 217.800 234.600 226.619 234.400 C 233.864 234.236,235.614 234.084,236.419 233.549 C 237.953 232.530,247.065 223.303,249.556 220.246 C 250.790 218.732,252.841 216.212,254.114 214.646 C 259.003 208.632,263.992 200.445,265.840 195.400 C 268.309 188.662,268.800 186.253,268.801 180.868 C 268.803 173.765,267.205 167.782,263.015 159.200 C 260.902 154.872,260.410 154.063,255.845 147.430 C 250.240 139.285,236.693 124.854,228.348 118.139 C 226.750 116.852,224.269 114.856,222.835 113.703 C 221.401 112.549,219.644 111.413,218.932 111.177 L 217.635 110.750 217.518 99.675 C 217.404 88.981,217.368 88.534,216.460 86.692 C 213.784 81.257,208.242 78.835,202.706 80.681 M150.761 125.500 C 148.748 128.338,143.600 136.365,143.600 136.665 C 143.600 136.786,143.090 137.541,142.466 138.342 C 141.843 139.144,141.213 140.070,141.067 140.400 C 140.921 140.730,139.496 143.022,137.901 145.494 C 136.305 147.966,134.114 151.386,133.032 153.094 C 130.835 156.561,127.369 161.962,125.391 165.000 C 124.675 166.100,122.250 169.880,120.003 173.400 C 117.755 176.920,115.509 180.430,115.012 181.200 C 114.514 181.970,113.228 184.002,112.154 185.715 C 111.079 187.428,109.120 190.500,107.800 192.542 C 106.480 194.583,104.500 197.675,103.400 199.413 C 102.300 201.151,100.815 203.453,100.100 204.527 C 96.632 209.737,95.905 209.600,126.966 209.600 C 153.605 209.600,155.267 209.512,155.744 208.075 C 155.968 207.398,157.263 205.073,158.458 203.200 C 159.718 201.227,162.278 196.132,163.885 192.400 C 167.748 183.427,167.803 183.160,167.782 173.400 C 167.760 163.725,167.364 161.262,163.769 148.497 C 162.683 144.642,159.931 136.623,159.554 136.220 C 159.359 136.011,159.200 135.596,159.200 135.298 C 159.200 135.000,158.868 134.001,158.462 133.078 C 158.056 132.155,157.209 130.140,156.580 128.600 C 154.044 122.390,153.262 121.973,150.761 125.500 " stroke="none" fill="#ffffff" fill-rule="evenodd"></path><path id="path1" d="M174.282 0.275 C 170.960 0.392,169.912 0.563,169.739 1.014 C 169.568 1.461,168.760 1.600,166.345 1.600 C 163.896 1.600,163.123 1.737,162.945 2.200 C 162.771 2.653,162.039 2.800,159.957 2.800 C 157.773 2.800,157.200 2.925,157.200 3.400 C 157.200 3.861,156.689 4.000,155.000 4.000 C 153.311 4.000,152.800 4.139,152.800 4.600 C 152.800 5.061,152.289 5.200,150.600 5.200 C 149.390 5.200,148.400 5.380,148.400 5.600 C 148.400 5.820,147.494 6.000,146.387 6.000 C 144.968 6.000,144.307 6.177,144.145 6.600 C 143.994 6.992,143.371 7.200,142.345 7.200 C 141.318 7.200,140.695 7.408,140.545 7.800 C 140.395 8.191,139.772 8.400,138.757 8.400 C 137.640 8.400,137.200 8.569,137.200 9.000 C 137.200 9.433,136.756 9.600,135.600 9.600 C 134.720 9.600,134.000 9.780,134.000 10.000 C 134.000 10.220,133.274 10.400,132.387 10.400 C 131.323 10.400,130.697 10.604,130.545 11.000 C 130.402 11.372,129.793 11.600,128.945 11.600 C 128.096 11.600,127.487 11.828,127.345 12.200 C 127.218 12.530,126.684 12.800,126.157 12.800 C 125.573 12.800,125.200 13.034,125.200 13.400 C 125.200 13.844,124.733 14.000,123.400 14.000 C 122.067 14.000,121.600 14.156,121.600 14.600 C 121.600 14.973,121.222 15.200,120.600 15.200 C 120.050 15.200,119.600 15.380,119.600 15.600 C 119.600 15.820,119.060 16.000,118.400 16.000 C 117.600 16.000,117.200 16.200,117.200 16.600 C 117.200 17.033,116.756 17.200,115.600 17.200 C 114.444 17.200,114.000 17.367,114.000 17.800 C 114.000 18.175,113.621 18.400,112.987 18.400 C 112.431 18.400,111.871 18.670,111.745 19.000 C 111.618 19.330,111.084 19.600,110.557 19.600 C 110.031 19.600,109.600 19.780,109.600 20.000 C 109.600 20.220,109.253 20.400,108.829 20.400 C 108.404 20.400,107.787 20.670,107.457 21.000 C 107.127 21.330,106.484 21.600,106.029 21.600 C 105.559 21.600,105.200 21.860,105.200 22.200 C 105.200 22.530,104.930 22.800,104.600 22.800 C 104.270 22.800,104.000 23.070,104.000 23.400 C 104.000 23.800,103.600 24.000,102.800 24.000 C 102.000 24.000,101.600 24.200,101.600 24.600 C 101.600 24.973,101.222 25.200,100.600 25.200 C 100.050 25.200,99.600 25.380,99.600 25.600 C 99.600 25.820,99.144 26.000,98.587 26.000 C 98.031 26.000,97.471 26.270,97.345 26.600 C 97.218 26.930,96.864 27.200,96.557 27.200 C 96.251 27.200,96.000 27.470,96.000 27.800 C 96.000 28.173,95.622 28.400,95.000 28.400 C 94.378 28.400,94.000 28.627,94.000 29.000 C 94.000 29.382,93.616 29.600,92.946 29.600 C 92.335 29.600,91.502 30.021,90.965 30.600 C 90.455 31.150,89.754 31.600,89.407 31.600 C 89.059 31.600,88.671 31.870,88.545 32.200 C 88.418 32.530,88.064 32.800,87.757 32.800 C 87.451 32.800,87.200 33.070,87.200 33.400 C 87.200 33.773,86.822 34.000,86.200 34.000 C 85.578 34.000,85.200 34.227,85.200 34.600 C 85.200 34.930,84.930 35.200,84.600 35.200 C 84.270 35.200,84.000 35.380,84.000 35.600 C 84.000 35.820,83.613 36.000,83.140 36.000 C 82.274 36.000,79.600 38.401,79.600 39.180 C 79.600 39.411,79.136 39.600,78.569 39.600 C 77.538 39.600,75.200 41.522,75.200 42.369 C 75.200 42.606,74.930 42.800,74.600 42.800 C 74.270 42.800,74.000 43.070,74.000 43.400 C 74.000 43.800,73.600 44.000,72.800 44.000 C 72.000 44.000,71.600 44.200,71.600 44.600 C 71.600 44.930,71.407 45.200,71.171 45.200 C 70.618 45.200,69.600 46.218,69.600 46.771 C 69.600 47.007,69.330 47.200,69.000 47.200 C 68.670 47.200,68.400 47.470,68.400 47.800 C 68.400 48.130,68.130 48.400,67.800 48.400 C 67.470 48.400,67.200 48.670,67.200 49.000 C 67.200 49.330,66.930 49.600,66.600 49.600 C 66.270 49.600,66.000 49.780,66.000 50.000 C 66.000 50.220,65.736 50.400,65.414 50.400 C 65.091 50.400,64.275 50.940,63.600 51.600 C 62.925 52.260,62.199 52.800,61.986 52.800 C 61.774 52.800,61.600 52.974,61.600 53.186 C 61.600 53.709,59.331 56.000,58.813 56.000 C 58.586 56.000,58.400 56.270,58.400 56.600 C 58.400 56.930,58.130 57.200,57.800 57.200 C 57.470 57.200,57.200 57.470,57.200 57.800 C 57.200 58.130,56.930 58.400,56.600 58.400 C 56.270 58.400,56.000 58.586,56.000 58.813 C 56.000 59.331,53.709 61.600,53.186 61.600 C 52.974 61.600,52.800 61.774,52.800 61.986 C 52.800 62.199,52.260 62.925,51.600 63.600 C 50.940 64.275,50.400 65.091,50.400 65.414 C 50.400 65.736,50.220 66.000,50.000 66.000 C 49.780 66.000,49.600 66.270,49.600 66.600 C 49.600 66.930,49.330 67.200,49.000 67.200 C 48.670 67.200,48.400 67.470,48.400 67.800 C 48.400 68.130,48.130 68.400,47.800 68.400 C 47.470 68.400,47.200 68.670,47.200 69.000 C 47.200 69.330,47.007 69.600,46.771 69.600 C 46.218 69.600,45.200 70.618,45.200 71.171 C 45.200 71.407,44.930 71.600,44.600 71.600 C 44.200 71.600,44.000 72.000,44.000 72.800 C 44.000 73.600,43.800 74.000,43.400 74.000 C 43.070 74.000,42.800 74.270,42.800 74.600 C 42.800 74.930,42.606 75.200,42.369 75.200 C 41.522 75.200,39.600 77.538,39.600 78.569 C 39.600 79.136,39.422 79.600,39.205 79.600 C 38.423 79.600,37.200 80.996,37.200 81.889 C 37.200 82.432,36.958 82.800,36.600 82.800 C 36.270 82.800,36.000 83.070,36.000 83.400 C 36.000 83.730,35.820 84.000,35.600 84.000 C 35.380 84.000,35.200 84.270,35.200 84.600 C 35.200 84.930,34.930 85.200,34.600 85.200 C 34.227 85.200,34.000 85.578,34.000 86.200 C 34.000 86.822,33.773 87.200,33.400 87.200 C 33.070 87.200,32.800 87.470,32.800 87.800 C 32.800 88.130,32.530 88.400,32.200 88.400 C 31.862 88.400,31.600 88.758,31.600 89.219 C 31.600 89.670,31.150 90.455,30.600 90.965 C 30.021 91.502,29.600 92.335,29.600 92.946 C 29.600 93.616,29.382 94.000,29.000 94.000 C 28.627 94.000,28.400 94.378,28.400 95.000 C 28.400 95.622,28.173 96.000,27.800 96.000 C 27.470 96.000,27.200 96.251,27.200 96.557 C 27.200 96.864,26.930 97.218,26.600 97.345 C 26.270 97.471,26.000 98.031,26.000 98.587 C 26.000 99.144,25.820 99.600,25.600 99.600 C 25.380 99.600,25.200 100.050,25.200 100.600 C 25.200 101.222,24.973 101.600,24.600 101.600 C 24.200 101.600,24.000 102.000,24.000 102.800 C 24.000 103.600,23.800 104.000,23.400 104.000 C 23.070 104.000,22.800 104.270,22.800 104.600 C 22.800 104.930,22.530 105.200,22.200 105.200 C 21.834 105.200,21.600 105.573,21.600 106.157 C 21.600 106.684,21.330 107.218,21.000 107.345 C 20.670 107.471,20.400 108.031,20.400 108.587 C 20.400 109.144,20.220 109.600,20.000 109.600 C 19.780 109.600,19.600 110.050,19.600 110.600 C 19.600 111.222,19.373 111.600,19.000 111.600 C 18.600 111.600,18.400 112.000,18.400 112.800 C 18.400 113.600,18.200 114.000,17.800 114.000 C 17.367 114.000,17.200 114.444,17.200 115.600 C 17.200 116.756,17.033 117.200,16.600 117.200 C 16.200 117.200,16.000 117.600,16.000 118.400 C 16.000 119.060,15.820 119.600,15.600 119.600 C 15.380 119.600,15.200 120.050,15.200 120.600 C 15.200 121.222,14.973 121.600,14.600 121.600 C 14.156 121.600,14.000 122.067,14.000 123.400 C 14.000 124.733,13.844 125.200,13.400 125.200 C 13.027 125.200,12.800 125.578,12.800 126.200 C 12.800 126.822,12.573 127.200,12.200 127.200 C 11.769 127.200,11.600 127.640,11.600 128.757 C 11.600 129.772,11.391 130.395,11.000 130.545 C 10.604 130.697,10.400 131.323,10.400 132.387 C 10.400 133.274,10.220 134.000,10.000 134.000 C 9.780 134.000,9.600 134.720,9.600 135.600 C 9.600 136.756,9.433 137.200,9.000 137.200 C 8.569 137.200,8.400 137.640,8.400 138.757 C 8.400 139.772,8.191 140.395,7.800 140.545 C 7.404 140.697,7.200 141.323,7.200 142.387 C 7.200 143.554,7.034 144.000,6.600 144.000 C 6.139 144.000,6.000 144.511,6.000 146.200 C 6.000 147.410,5.820 148.400,5.600 148.400 C 5.380 148.400,5.200 149.390,5.200 150.600 C 5.200 152.289,5.061 152.800,4.600 152.800 C 4.139 152.800,4.000 153.311,4.000 155.000 C 4.000 156.689,3.861 157.200,3.400 157.200 C 2.925 157.200,2.800 157.773,2.800 159.957 C 2.800 162.039,2.653 162.771,2.200 162.945 C 1.739 163.122,1.600 163.885,1.600 166.243 C 1.600 168.704,1.461 169.413,0.900 169.824 C -0.184 170.616,-0.184 229.384,0.900 230.176 C 1.461 230.587,1.600 231.296,1.600 233.757 C 1.600 236.115,1.739 236.878,2.200 237.055 C 2.653 237.229,2.800 237.961,2.800 240.043 C 2.800 242.227,2.925 242.800,3.400 242.800 C 3.861 242.800,4.000 243.311,4.000 245.000 C 4.000 246.689,4.139 247.200,4.600 247.200 C 5.061 247.200,5.200 247.711,5.200 249.400 C 5.200 250.610,5.380 251.600,5.600 251.600 C 5.820 251.600,6.000 252.506,6.000 253.613 C 6.000 255.032,6.177 255.693,6.600 255.855 C 6.992 256.006,7.200 256.629,7.200 257.655 C 7.200 258.682,7.408 259.305,7.800 259.455 C 8.191 259.605,8.400 260.228,8.400 261.243 C 8.400 262.360,8.569 262.800,9.000 262.800 C 9.433 262.800,9.600 263.244,9.600 264.400 C 9.600 265.280,9.780 266.000,10.000 266.000 C 10.220 266.000,10.400 266.726,10.400 267.613 C 10.400 268.677,10.604 269.303,11.000 269.455 C 11.372 269.598,11.600 270.207,11.600 271.055 C 11.600 271.904,11.828 272.513,12.200 272.655 C 12.530 272.782,12.800 273.316,12.800 273.843 C 12.800 274.427,13.034 274.800,13.400 274.800 C 13.844 274.800,14.000 275.267,14.000 276.600 C 14.000 277.933,14.156 278.400,14.600 278.400 C 14.973 278.400,15.200 278.778,15.200 279.400 C 15.200 279.950,15.380 280.400,15.600 280.400 C 15.820 280.400,16.000 280.940,16.000 281.600 C 16.000 282.400,16.200 282.800,16.600 282.800 C 17.033 282.800,17.200 283.244,17.200 284.400 C 17.200 285.556,17.367 286.000,17.800 286.000 C 18.175 286.000,18.400 286.379,18.400 287.013 C 18.400 287.569,18.670 288.129,19.000 288.255 C 19.330 288.382,19.600 288.916,19.600 289.443 C 19.600 289.969,19.780 290.400,20.000 290.400 C 20.220 290.400,20.400 290.747,20.400 291.171 C 20.400 291.596,20.670 292.213,21.000 292.543 C 21.330 292.873,21.600 293.516,21.600 293.971 C 21.600 294.441,21.860 294.800,22.200 294.800 C 22.530 294.800,22.800 295.070,22.800 295.400 C 22.800 295.730,23.070 296.000,23.400 296.000 C 23.800 296.000,24.000 296.400,24.000 297.200 C 24.000 298.000,24.200 298.400,24.600 298.400 C 24.973 298.400,25.200 298.778,25.200 299.400 C 25.200 299.950,25.380 300.400,25.600 300.400 C 25.820 300.400,26.000 300.856,26.000 301.413 C 26.000 301.969,26.270 302.529,26.600 302.655 C 26.930 302.782,27.200 303.136,27.200 303.443 C 27.200 303.749,27.470 304.000,27.800 304.000 C 28.173 304.000,28.400 304.378,28.400 305.000 C 28.400 305.622,28.627 306.000,29.000 306.000 C 29.382 306.000,29.600 306.384,29.600 307.054 C 29.600 307.665,30.021 308.498,30.600 309.035 C 31.150 309.545,31.600 310.246,31.600 310.593 C 31.600 310.941,31.870 311.329,32.200 311.455 C 32.530 311.582,32.800 311.936,32.800 312.243 C 32.800 312.549,33.070 312.800,33.400 312.800 C 33.773 312.800,34.000 313.178,34.000 313.800 C 34.000 314.422,34.227 314.800,34.600 314.800 C 34.930 314.800,35.200 315.070,35.200 315.400 C 35.200 315.730,35.380 316.000,35.600 316.000 C 35.820 316.000,36.000 316.387,36.000 316.860 C 36.000 317.726,38.401 320.400,39.180 320.400 C 39.411 320.400,39.600 320.864,39.600 321.431 C 39.600 322.462,41.522 324.800,42.369 324.800 C 42.606 324.800,42.800 325.070,42.800 325.400 C 42.800 325.730,43.070 326.000,43.400 326.000 C 43.800 326.000,44.000 326.400,44.000 327.200 C 44.000 328.000,44.200 328.400,44.600 328.400 C 44.930 328.400,45.200 328.593,45.200 328.829 C 45.200 329.382,46.218 330.400,46.771 330.400 C 47.007 330.400,47.200 330.670,47.200 331.000 C 47.200 331.330,47.470 331.600,47.800 331.600 C 48.130 331.600,48.400 331.870,48.400 332.200 C 48.400 332.530,48.670 332.800,49.000 332.800 C 49.330 332.800,49.600 333.070,49.600 333.400 C 49.600 333.730,49.780 334.000,50.000 334.000 C 50.220 334.000,50.400 334.264,50.400 334.586 C 50.400 334.909,50.940 335.725,51.600 336.400 C 52.260 337.075,52.800 337.801,52.800 338.014 C 52.800 338.226,52.974 338.400,53.186 338.400 C 53.709 338.400,56.000 340.669,56.000 341.187 C 56.000 341.414,56.270 341.600,56.600 341.600 C 56.930 341.600,57.200 341.870,57.200 342.200 C 57.200 342.530,57.470 342.800,57.800 342.800 C 58.130 342.800,58.400 343.070,58.400 343.400 C 58.400 343.730,58.586 344.000,58.813 344.000 C 59.331 344.000,61.600 346.291,61.600 346.814 C 61.600 347.026,61.774 347.200,61.986 347.200 C 62.199 347.200,62.925 347.740,63.600 348.400 C 64.275 349.060,65.091 349.600,65.414 349.600 C 65.736 349.600,66.000 349.780,66.000 350.000 C 66.000 350.220,66.270 350.400,66.600 350.400 C 66.930 350.400,67.200 350.670,67.200 351.000 C 67.200 351.330,67.470 351.600,67.800 351.600 C 68.130 351.600,68.400 351.870,68.400 352.200 C 68.400 352.530,68.670 352.800,69.000 352.800 C 69.330 352.800,69.600 352.993,69.600 353.229 C 69.600 353.782,70.618 354.800,71.171 354.800 C 71.407 354.800,71.600 355.070,71.600 355.400 C 71.600 355.800,72.000 356.000,72.800 356.000 C 73.600 356.000,74.000 356.200,74.000 356.600 C 74.000 356.930,74.270 357.200,74.600 357.200 C 74.930 357.200,75.200 357.394,75.200 357.631 C 75.200 358.478,77.538 360.400,78.569 360.400 C 79.136 360.400,79.600 360.578,79.600 360.795 C 79.600 361.577,80.996 362.800,81.889 362.800 C 82.432 362.800,82.800 363.042,82.800 363.400 C 82.800 363.730,83.070 364.000,83.400 364.000 C 83.730 364.000,84.000 364.180,84.000 364.400 C 84.000 364.620,84.270 364.800,84.600 364.800 C 84.930 364.800,85.200 365.070,85.200 365.400 C 85.200 365.773,85.578 366.000,86.200 366.000 C 86.822 366.000,87.200 366.227,87.200 366.600 C 87.200 366.930,87.470 367.200,87.800 367.200 C 88.130 367.200,88.400 367.470,88.400 367.800 C 88.400 368.138,88.758 368.400,89.219 368.400 C 89.670 368.400,90.455 368.850,90.965 369.400 C 91.502 369.979,92.335 370.400,92.946 370.400 C 93.616 370.400,94.000 370.618,94.000 371.000 C 94.000 371.373,94.378 371.600,95.000 371.600 C 95.622 371.600,96.000 371.827,96.000 372.200 C 96.000 372.530,96.251 372.800,96.557 372.800 C 96.864 372.800,97.218 373.070,97.345 373.400 C 97.471 373.730,98.031 374.000,98.587 374.000 C 99.144 374.000,99.600 374.180,99.600 374.400 C 99.600 374.620,100.050 374.800,100.600 374.800 C 101.222 374.800,101.600 375.027,101.600 375.400 C 101.600 375.800,102.000 376.000,102.800 376.000 C 103.600 376.000,104.000 376.200,104.000 376.600 C 104.000 376.930,104.270 377.200,104.600 377.200 C 104.930 377.200,105.200 377.470,105.200 377.800 C 105.200 378.166,105.573 378.400,106.157 378.400 C 106.684 378.400,107.218 378.670,107.345 379.000 C 107.471 379.330,108.031 379.600,108.587 379.600 C 109.144 379.600,109.600 379.780,109.600 380.000 C 109.600 380.220,110.050 380.400,110.600 380.400 C 111.222 380.400,111.600 380.627,111.600 381.000 C 111.600 381.400,112.000 381.600,112.800 381.600 C 113.600 381.600,114.000 381.800,114.000 382.200 C 114.000 382.633,114.444 382.800,115.600 382.800 C 116.756 382.800,117.200 382.967,117.200 383.400 C 117.200 383.800,117.600 384.000,118.400 384.000 C 119.060 384.000,119.600 384.180,119.600 384.400 C 119.600 384.620,120.050 384.800,120.600 384.800 C 121.222 384.800,121.600 385.027,121.600 385.400 C 121.600 385.844,122.067 386.000,123.400 386.000 C 124.733 386.000,125.200 386.156,125.200 386.600 C 125.200 386.973,125.578 387.200,126.200 387.200 C 126.822 387.200,127.200 387.427,127.200 387.800 C 127.200 388.231,127.640 388.400,128.757 388.400 C 129.772 388.400,130.395 388.609,130.545 389.000 C 130.697 389.396,131.323 389.600,132.387 389.600 C 133.274 389.600,134.000 389.780,134.000 390.000 C 134.000 390.220,134.720 390.400,135.600 390.400 C 136.756 390.400,137.200 390.567,137.200 391.000 C 137.200 391.431,137.640 391.600,138.757 391.600 C 139.772 391.600,140.395 391.809,140.545 392.200 C 140.697 392.596,141.323 392.800,142.387 392.800 C 143.554 392.800,144.000 392.966,144.000 393.400 C 144.000 393.861,144.511 394.000,146.200 394.000 C 147.410 394.000,148.400 394.180,148.400 394.400 C 148.400 394.620,149.390 394.800,150.600 394.800 C 152.289 394.800,152.800 394.939,152.800 395.400 C 152.800 395.861,153.311 396.000,155.000 396.000 C 156.689 396.000,157.200 396.139,157.200 396.600 C 157.200 397.075,157.773 397.200,159.957 397.200 C 162.039 397.200,162.771 397.347,162.945 397.800 C 163.122 398.261,163.885 398.400,166.243 398.400 C 168.704 398.400,169.413 398.539,169.824 399.100 C 170.616 400.184,229.384 400.184,230.176 399.100 C 230.587 398.539,231.296 398.400,233.757 398.400 C 236.115 398.400,236.878 398.261,237.055 397.800 C 237.229 397.347,237.961 397.200,240.043 397.200 C 242.227 397.200,242.800 397.075,242.800 396.600 C 242.800 396.139,243.311 396.000,245.000 396.000 C 246.689 396.000,247.200 395.861,247.200 395.400 C 247.200 394.939,247.711 394.800,249.400 394.800 C 250.610 394.800,251.600 394.620,251.600 394.400 C 251.600 394.180,252.506 394.000,253.613 394.000 C 255.032 394.000,255.693 393.823,255.855 393.400 C 256.006 393.008,256.629 392.800,257.655 392.800 C 258.682 392.800,259.305 392.592,259.455 392.200 C 259.605 391.809,260.228 391.600,261.243 391.600 C 262.360 391.600,262.800 391.431,262.800 391.000 C 262.800 390.567,263.244 390.400,264.400 390.400 C 265.280 390.400,266.000 390.220,266.000 390.000 C 266.000 389.780,266.726 389.600,267.613 389.600 C 268.677 389.600,269.303 389.396,269.455 389.000 C 269.598 388.628,270.207 388.400,271.055 388.400 C 271.904 388.400,272.513 388.172,272.655 387.800 C 272.782 387.470,273.316 387.200,273.843 387.200 C 274.427 387.200,274.800 386.966,274.800 386.600 C 274.800 386.156,275.267 386.000,276.600 386.000 C 277.933 386.000,278.400 385.844,278.400 385.400 C 278.400 385.027,278.778 384.800,279.400 384.800 C 279.950 384.800,280.400 384.620,280.400 384.400 C 280.400 384.180,280.940 384.000,281.600 384.000 C 282.400 384.000,282.800 383.800,282.800 383.400 C 282.800 382.967,283.244 382.800,284.400 382.800 C 285.556 382.800,286.000 382.633,286.000 382.200 C 286.000 381.825,286.379 381.600,287.013 381.600 C 287.569 381.600,288.129 381.330,288.255 381.000 C 288.382 380.670,288.916 380.400,289.443 380.400 C 289.969 380.400,290.400 380.220,290.400 380.000 C 290.400 379.780,290.747 379.600,291.171 379.600 C 291.596 379.600,292.213 379.330,292.543 379.000 C 292.873 378.670,293.516 378.400,293.971 378.400 C 294.441 378.400,294.800 378.140,294.800 377.800 C 294.800 377.470,295.070 377.200,295.400 377.200 C 295.730 377.200,296.000 376.930,296.000 376.600 C 296.000 376.200,296.400 376.000,297.200 376.000 C 298.000 376.000,298.400 375.800,298.400 375.400 C 298.400 375.027,298.778 374.800,299.400 374.800 C 299.950 374.800,300.400 374.620,300.400 374.400 C 300.400 374.180,300.856 374.000,301.413 374.000 C 301.969 374.000,302.529 373.730,302.655 373.400 C 302.782 373.070,303.136 372.800,303.443 372.800 C 303.749 372.800,304.000 372.530,304.000 372.200 C 304.000 371.827,304.378 371.600,305.000 371.600 C 305.622 371.600,306.000 371.373,306.000 371.000 C 306.000 370.618,306.384 370.400,307.054 370.400 C 307.665 370.400,308.498 369.979,309.035 369.400 C 309.545 368.850,310.246 368.400,310.593 368.400 C 310.941 368.400,311.329 368.130,311.455 367.800 C 311.582 367.470,311.936 367.200,312.243 367.200 C 312.549 367.200,312.800 366.930,312.800 366.600 C 312.800 366.227,313.178 366.000,313.800 366.000 C 314.422 366.000,314.800 365.773,314.800 365.400 C 314.800 365.070,315.070 364.800,315.400 364.800 C 315.730 364.800,316.000 364.620,316.000 364.400 C 316.000 364.180,316.387 364.000,316.860 364.000 C 317.726 364.000,320.400 361.599,320.400 360.820 C 320.400 360.589,320.864 360.400,321.431 360.400 C 322.462 360.400,324.800 358.478,324.800 357.631 C 324.800 357.394,325.070 357.200,325.400 357.200 C 325.730 357.200,326.000 356.930,326.000 356.600 C 326.000 356.200,326.400 356.000,327.200 356.000 C 328.000 356.000,328.400 355.800,328.400 355.400 C 328.400 355.070,328.593 354.800,328.829 354.800 C 329.382 354.800,330.400 353.782,330.400 353.229 C 330.400 352.993,330.670 352.800,331.000 352.800 C 331.330 352.800,331.600 352.530,331.600 352.200 C 331.600 351.870,331.870 351.600,332.200 351.600 C 332.530 351.600,332.800 351.330,332.800 351.000 C 332.800 350.670,333.070 350.400,333.400 350.400 C 333.730 350.400,334.000 350.220,334.000 350.000 C 334.000 349.780,334.264 349.600,334.586 349.600 C 334.909 349.600,335.725 349.060,336.400 348.400 C 337.075 347.740,337.801 347.200,338.014 347.200 C 338.226 347.200,338.400 347.026,338.400 346.814 C 338.400 346.291,340.669 344.000,341.187 344.000 C 341.414 344.000,341.600 343.730,341.600 343.400 C 341.600 343.070,341.870 342.800,342.200 342.800 C 342.530 342.800,342.800 342.530,342.800 342.200 C 342.800 341.870,343.070 341.600,343.400 341.600 C 343.730 341.600,344.000 341.414,344.000 341.187 C 344.000 340.669,346.291 338.400,346.814 338.400 C 347.026 338.400,347.200 338.226,347.200 338.014 C 347.200 337.801,347.740 337.075,348.400 336.400 C 349.060 335.725,349.600 334.909,349.600 334.586 C 349.600 334.264,349.780 334.000,350.000 334.000 C 350.220 334.000,350.400 333.730,350.400 333.400 C 350.400 333.070,350.670 332.800,351.000 332.800 C 351.330 332.800,351.600 332.530,351.600 332.200 C 351.600 331.870,351.870 331.600,352.200 331.600 C 352.530 331.600,352.800 331.330,352.800 331.000 C 352.800 330.670,352.993 330.400,353.229 330.400 C 353.782 330.400,354.800 329.382,354.800 328.829 C 354.800 328.593,355.070 328.400,355.400 328.400 C 355.800 328.400,356.000 328.000,356.000 327.200 C 356.000 326.400,356.200 326.000,356.600 326.000 C 356.930 326.000,357.200 325.730,357.200 325.400 C 357.200 325.070,357.394 324.800,357.631 324.800 C 358.478 324.800,360.400 322.462,360.400 321.431 C 360.400 320.864,360.578 320.400,360.795 320.400 C 361.577 320.400,362.800 319.004,362.800 318.111 C 362.800 317.568,363.042 317.200,363.400 317.200 C 363.730 317.200,364.000 316.930,364.000 316.600 C 364.000 316.270,364.180 316.000,364.400 316.000 C 364.620 316.000,364.800 315.730,364.800 315.400 C 364.800 315.070,365.070 314.800,365.400 314.800 C 365.773 314.800,366.000 314.422,366.000 313.800 C 366.000 313.178,366.227 312.800,366.600 312.800 C 366.930 312.800,367.200 312.530,367.200 312.200 C 367.200 311.870,367.470 311.600,367.800 311.600 C 368.138 311.600,368.400 311.242,368.400 310.781 C 368.400 310.330,368.850 309.545,369.400 309.035 C 369.979 308.498,370.400 307.665,370.400 307.054 C 370.400 306.384,370.618 306.000,371.000 306.000 C 371.373 306.000,371.600 305.622,371.600 305.000 C 371.600 304.378,371.827 304.000,372.200 304.000 C 372.530 304.000,372.800 303.749,372.800 303.443 C 372.800 303.136,373.070 302.782,373.400 302.655 C 373.730 302.529,374.000 301.969,374.000 301.413 C 374.000 300.856,374.180 300.400,374.400 300.400 C 374.620 300.400,374.800 299.950,374.800 299.400 C 374.800 298.778,375.027 298.400,375.400 298.400 C 375.800 298.400,376.000 298.000,376.000 297.200 C 376.000 296.400,376.200 296.000,376.600 296.000 C 376.930 296.000,377.200 295.730,377.200 295.400 C 377.200 295.070,377.470 294.800,377.800 294.800 C 378.166 294.800,378.400 294.427,378.400 293.843 C 378.400 293.316,378.670 292.782,379.000 292.655 C 379.330 292.529,379.600 291.969,379.600 291.413 C 379.600 290.856,379.780 290.400,380.000 290.400 C 380.220 290.400,380.400 289.950,380.400 289.400 C 380.400 288.778,380.627 288.400,381.000 288.400 C 381.400 288.400,381.600 288.000,381.600 287.200 C 381.600 286.400,381.800 286.000,382.200 286.000 C 382.633 286.000,382.800 285.556,382.800 284.400 C 382.800 283.244,382.967 282.800,383.400 282.800 C 383.800 282.800,384.000 282.400,384.000 281.600 C 384.000 280.940,384.180 280.400,384.400 280.400 C 384.620 280.400,384.800 279.950,384.800 279.400 C 384.800 278.778,385.027 278.400,385.400 278.400 C 385.844 278.400,386.000 277.933,386.000 276.600 C 386.000 275.267,386.156 274.800,386.600 274.800 C 386.973 274.800,387.200 274.422,387.200 273.800 C 387.200 273.178,387.427 272.800,387.800 272.800 C 388.231 272.800,388.400 272.360,388.400 271.243 C 388.400 270.228,388.609 269.605,389.000 269.455 C 389.396 269.303,389.600 268.677,389.600 267.613 C 389.600 266.726,389.780 266.000,390.000 266.000 C 390.220 266.000,390.400 265.280,390.400 264.400 C 390.400 263.244,390.567 262.800,391.000 262.800 C 391.431 262.800,391.600 262.360,391.600 261.243 C 391.600 260.228,391.809 259.605,392.200 259.455 C 392.596 259.303,392.800 258.677,392.800 257.613 C 392.800 256.446,392.966 256.000,393.400 256.000 C 393.861 256.000,394.000 255.489,394.000 253.800 C 394.000 252.590,394.180 251.600,394.400 251.600 C 394.620 251.600,394.800 250.610,394.800 249.400 C 394.800 247.711,394.939 247.200,395.400 247.200 C 395.861 247.200,396.000 246.689,396.000 245.000 C 396.000 243.311,396.139 242.800,396.600 242.800 C 397.075 242.800,397.200 242.227,397.200 240.043 C 397.200 237.961,397.347 237.229,397.800 237.055 C 398.261 236.878,398.400 236.115,398.400 233.757 C 398.400 231.296,398.539 230.587,399.100 230.176 C 399.756 229.697,399.800 227.790,399.800 200.000 C 399.800 172.210,399.756 170.303,399.100 169.824 C 398.539 169.413,398.400 168.704,398.400 166.243 C 398.400 163.885,398.261 163.122,397.800 162.945 C 397.347 162.771,397.200 162.039,397.200 159.957 C 397.200 157.773,397.075 157.200,396.600 157.200 C 396.139 157.200,396.000 156.689,396.000 155.000 C 396.000 153.311,395.861 152.800,395.400 152.800 C 394.939 152.800,394.800 152.289,394.800 150.600 C 394.800 149.390,394.620 148.400,394.400 148.400 C 394.180 148.400,394.000 147.494,394.000 146.387 C 394.000 144.968,393.823 144.307,393.400 144.145 C 393.008 143.994,392.800 143.371,392.800 142.345 C 392.800 141.318,392.592 140.695,392.200 140.545 C 391.809 140.395,391.600 139.772,391.600 138.757 C 391.600 137.640,391.431 137.200,391.000 137.200 C 390.567 137.200,390.400 136.756,390.400 135.600 C 390.400 134.720,390.220 134.000,390.000 134.000 C 389.780 134.000,389.600 133.274,389.600 132.387 C 389.600 131.323,389.396 130.697,389.000 130.545 C 388.628 130.402,388.400 129.793,388.400 128.945 C 388.400 128.096,388.172 127.487,387.800 127.345 C 387.470 127.218,387.200 126.684,387.200 126.157 C 387.200 125.573,386.966 125.200,386.600 125.200 C 386.156 125.200,386.000 124.733,386.000 123.400 C 386.000 122.067,385.844 121.600,385.400 121.600 C 385.027 121.600,384.800 121.222,384.800 120.600 C 384.800 120.050,384.620 119.600,384.400 119.600 C 384.180 119.600,384.000 119.060,384.000 118.400 C 384.000 117.600,383.800 117.200,383.400 117.200 C 382.967 117.200,382.800 116.756,382.800 115.600 C 382.800 114.444,382.633 114.000,382.200 114.000 C 381.825 114.000,381.600 113.621,381.600 112.987 C 381.600 112.431,381.330 111.871,381.000 111.745 C 380.670 111.618,380.400 111.084,380.400 110.557 C 380.400 110.031,380.220 109.600,380.000 109.600 C 379.780 109.600,379.600 109.253,379.600 108.829 C 379.600 108.404,379.330 107.787,379.000 107.457 C 378.670 107.127,378.400 106.484,378.400 106.029 C 378.400 105.559,378.140 105.200,377.800 105.200 C 377.400 105.200,377.200 104.800,377.200 104.000 C 377.200 103.200,377.000 102.800,376.600 102.800 C 376.270 102.800,376.000 102.530,376.000 102.200 C 376.000 101.870,375.730 101.600,375.400 101.600 C 375.027 101.600,374.800 101.222,374.800 100.600 C 374.800 100.050,374.620 99.600,374.400 99.600 C 374.180 99.600,374.000 99.144,374.000 98.587 C 374.000 98.031,373.730 97.471,373.400 97.345 C 373.070 97.218,372.800 96.864,372.800 96.557 C 372.800 96.251,372.530 96.000,372.200 96.000 C 371.827 96.000,371.600 95.622,371.600 95.000 C 371.600 94.378,371.373 94.000,371.000 94.000 C 370.618 94.000,370.400 93.616,370.400 92.946 C 370.400 92.335,369.979 91.502,369.400 90.965 C 368.850 90.455,368.400 89.670,368.400 89.219 C 368.400 88.758,368.138 88.400,367.800 88.400 C 367.470 88.400,367.200 88.130,367.200 87.800 C 367.200 87.470,366.930 87.200,366.600 87.200 C 366.227 87.200,366.000 86.822,366.000 86.200 C 366.000 85.578,365.773 85.200,365.400 85.200 C 365.070 85.200,364.800 84.930,364.800 84.600 C 364.800 84.270,364.620 84.000,364.400 84.000 C 364.180 84.000,364.000 83.613,364.000 83.140 C 364.000 82.274,361.599 79.600,360.820 79.600 C 360.589 79.600,360.400 79.136,360.400 78.569 C 360.400 77.538,358.478 75.200,357.631 75.200 C 357.394 75.200,357.200 74.930,357.200 74.600 C 357.200 74.270,356.930 74.000,356.600 74.000 C 356.200 74.000,356.000 73.600,356.000 72.800 C 356.000 72.000,355.800 71.600,355.400 71.600 C 355.070 71.600,354.800 71.407,354.800 71.171 C 354.800 70.618,353.782 69.600,353.229 69.600 C 352.993 69.600,352.800 69.330,352.800 69.000 C 352.800 68.670,352.530 68.400,352.200 68.400 C 351.870 68.400,351.600 68.130,351.600 67.800 C 351.600 67.470,351.330 67.200,351.000 67.200 C 350.670 67.200,350.400 66.930,350.400 66.600 C 350.400 66.270,350.220 66.000,350.000 66.000 C 349.780 66.000,349.600 65.736,349.600 65.414 C 349.600 65.091,349.060 64.275,348.400 63.600 C 347.740 62.925,347.200 62.199,347.200 61.986 C 347.200 61.774,347.026 61.600,346.814 61.600 C 346.291 61.600,344.000 59.331,344.000 58.813 C 344.000 58.586,343.730 58.400,343.400 58.400 C 343.070 58.400,342.800 58.130,342.800 57.800 C 342.800 57.470,342.530 57.200,342.200 57.200 C 341.870 57.200,341.600 56.930,341.600 56.600 C 341.600 56.270,341.414 56.000,341.187 56.000 C 340.669 56.000,338.400 53.709,338.400 53.186 C 338.400 52.974,338.130 52.800,337.800 52.800 C 337.470 52.800,337.200 52.530,337.200 52.200 C 337.200 51.870,336.930 51.600,336.600 51.600 C 336.270 51.600,336.000 51.423,336.000 51.208 C 336.000 50.992,335.550 50.702,335.000 50.564 C 334.450 50.426,334.000 50.153,334.000 49.957 C 334.000 49.760,333.730 49.600,333.400 49.600 C 333.070 49.600,332.800 49.330,332.800 49.000 C 332.800 48.670,332.530 48.400,332.200 48.400 C 331.870 48.400,331.600 48.130,331.600 47.800 C 331.600 47.470,331.330 47.200,331.000 47.200 C 330.670 47.200,330.400 47.007,330.400 46.771 C 330.400 46.218,329.382 45.200,328.829 45.200 C 328.593 45.200,328.400 44.930,328.400 44.600 C 328.400 44.200,328.000 44.000,327.200 44.000 C 326.400 44.000,326.000 43.800,326.000 43.400 C 326.000 43.070,325.730 42.800,325.400 42.800 C 325.070 42.800,324.800 42.606,324.800 42.369 C 324.800 41.522,322.462 39.600,321.431 39.600 C 320.864 39.600,320.400 39.422,320.400 39.205 C 320.400 38.423,319.004 37.200,318.111 37.200 C 317.568 37.200,317.200 36.958,317.200 36.600 C 317.200 36.270,316.930 36.000,316.600 36.000 C 316.270 36.000,316.000 35.820,316.000 35.600 C 316.000 35.380,315.730 35.200,315.400 35.200 C 315.070 35.200,314.800 34.930,314.800 34.600 C 314.800 34.227,314.422 34.000,313.800 34.000 C 313.178 34.000,312.800 33.773,312.800 33.400 C 312.800 33.070,312.530 32.800,312.200 32.800 C 311.870 32.800,311.600 32.530,311.600 32.200 C 311.600 31.862,311.242 31.600,310.781 31.600 C 310.330 31.600,309.545 31.150,309.035 30.600 C 308.498 30.021,307.665 29.600,307.054 29.600 C 306.384 29.600,306.000 29.382,306.000 29.000 C 306.000 28.627,305.622 28.400,305.000 28.400 C 304.378 28.400,304.000 28.173,304.000 27.800 C 304.000 27.470,303.749 27.200,303.443 27.200 C 303.136 27.200,302.782 26.930,302.655 26.600 C 302.529 26.270,301.969 26.000,301.413 26.000 C 300.856 26.000,300.400 25.820,300.400 25.600 C 300.400 25.380,299.950 25.200,299.400 25.200 C 298.778 25.200,298.400 24.973,298.400 24.600 C 298.400 24.200,298.000 24.000,297.200 24.000 C 296.400 24.000,296.000 23.800,296.000 23.400 C 296.000 23.070,295.730 22.800,295.400 22.800 C 295.070 22.800,294.800 22.530,294.800 22.200 C 294.800 21.834,294.427 21.600,293.843 21.600 C 293.316 21.600,292.782 21.330,292.655 21.000 C 292.529 20.670,291.969 20.400,291.413 20.400 C 290.856 20.400,290.400 20.220,290.400 20.000 C 290.400 19.780,289.950 19.600,289.400 19.600 C 288.778 19.600,288.400 19.373,288.400 19.000 C 288.400 18.600,288.000 18.400,287.200 18.400 C 286.400 18.400,286.000 18.200,286.000 17.800 C 286.000 17.367,285.556 17.200,284.400 17.200 C 283.244 17.200,282.800 17.033,282.800 16.600 C 282.800 16.200,282.400 16.000,281.600 16.000 C 280.940 16.000,280.400 15.820,280.400 15.600 C 280.400 15.380,279.950 15.200,279.400 15.200 C 278.778 15.200,278.400 14.973,278.400 14.600 C 278.400 14.156,277.933 14.000,276.600 14.000 C 275.267 14.000,274.800 13.844,274.800 13.400 C 274.800 13.027,274.422 12.800,273.800 12.800 C 273.178 12.800,272.800 12.573,272.800 12.200 C 272.800 11.769,272.360 11.600,271.243 11.600 C 270.228 11.600,269.605 11.391,269.455 11.000 C 269.303 10.604,268.677 10.400,267.613 10.400 C 266.726 10.400,266.000 10.220,266.000 10.000 C 266.000 9.780,265.280 9.600,264.400 9.600 C 263.244 9.600,262.800 9.433,262.800 9.000 C 262.800 8.569,262.360 8.400,261.243 8.400 C 260.228 8.400,259.605 8.191,259.455 7.800 C 259.303 7.404,258.677 7.200,257.613 7.200 C 256.446 7.200,256.000 7.034,256.000 6.600 C 256.000 6.139,255.489 6.000,253.800 6.000 C 252.590 6.000,251.600 5.820,251.600 5.600 C 251.600 5.380,250.610 5.200,249.400 5.200 C 247.711 5.200,247.200 5.061,247.200 4.600 C 247.200 4.139,246.689 4.000,245.000 4.000 C 243.311 4.000,242.800 3.861,242.800 3.400 C 242.800 2.925,242.227 2.800,240.043 2.800 C 237.961 2.800,237.229 2.653,237.055 2.200 C 236.878 1.739,236.115 1.600,233.757 1.600 C 231.316 1.600,230.585 1.459,230.185 0.912 C 229.690 0.235,188.660 -0.232,174.282 0.275 M209.997 80.675 C 216.129 82.655,217.370 85.791,217.518 99.675 L 217.635 110.750 218.932 111.177 C 219.644 111.413,221.401 112.549,222.835 113.703 C 224.269 114.856,226.750 116.852,228.348 118.139 C 236.693 124.854,250.240 139.285,255.845 147.430 C 260.410 154.063,260.902 154.872,263.015 159.200 C 271.931 177.463,270.794 190.476,258.714 208.407 C 257.457 210.273,255.387 213.081,254.114 214.646 C 252.841 216.212,250.790 218.732,249.556 220.246 C 247.065 223.303,237.953 232.530,236.419 233.549 C 235.614 234.084,233.864 234.236,226.619 234.400 L 217.800 234.600 217.694 245.500 L 217.587 256.400 230.465 256.400 C 244.369 256.400,244.402 256.396,249.200 254.079 C 251.834 252.806,253.132 251.712,259.837 245.115 C 264.037 240.982,267.690 237.600,267.955 237.600 C 268.220 237.600,269.913 237.147,271.718 236.593 C 273.523 236.039,275.990 235.298,277.200 234.946 C 278.410 234.594,279.850 234.172,280.400 234.009 C 282.522 233.380,285.893 232.413,288.000 231.828 C 289.210 231.492,292.360 230.565,295.000 229.768 C 297.640 228.971,300.520 228.147,301.400 227.936 C 302.280 227.725,304.080 227.193,305.400 226.755 C 306.720 226.316,308.520 225.804,309.400 225.617 C 310.280 225.430,311.540 225.088,312.200 224.858 C 312.860 224.627,314.480 224.146,315.800 223.787 C 317.120 223.429,318.650 222.985,319.200 222.800 C 319.750 222.615,321.280 222.162,322.600 221.792 C 323.920 221.422,325.966 220.837,327.146 220.491 C 330.531 219.498,330.780 220.040,330.791 228.430 C 330.802 236.323,331.314 235.481,324.400 238.938 C 317.446 242.415,310.846 246.848,308.272 249.773 C 307.871 250.228,307.147 251.050,306.663 251.600 C 305.650 252.750,301.200 259.161,301.200 259.470 C 301.200 259.583,300.416 260.874,299.459 262.338 C 298.501 263.802,296.766 266.530,295.603 268.400 C 293.262 272.164,287.672 280.661,286.919 281.600 C 286.655 281.930,284.904 284.116,283.029 286.457 C 276.212 294.970,268.190 300.195,259.800 301.587 C 256.211 302.182,145.681 301.924,141.400 301.311 C 134.309 300.294,128.403 298.409,121.400 294.926 C 99.697 284.133,85.523 262.756,84.186 238.800 C 84.023 235.881,84.085 233.798,84.355 233.100 L 84.780 232.000 114.557 232.000 C 130.935 232.000,144.619 232.109,144.967 232.243 C 145.461 232.432,145.600 233.101,145.600 235.285 C 145.600 243.330,150.036 250.840,156.792 254.234 C 161.007 256.350,161.418 256.391,178.706 256.396 L 194.813 256.400 194.706 245.500 L 194.600 234.600 180.361 234.400 C 162.757 234.153,163.189 234.331,166.818 228.800 C 171.197 222.127,173.353 218.650,175.375 215.000 C 175.985 213.900,176.661 212.782,176.877 212.516 C 177.617 211.608,183.007 200.606,184.088 197.800 C 187.221 189.665,188.800 182.088,188.800 175.186 C 188.800 168.417,186.786 155.055,184.612 147.400 C 184.237 146.080,183.782 144.460,183.600 143.800 C 183.419 143.140,183.077 142.060,182.840 141.400 C 182.603 140.740,181.764 138.220,180.976 135.800 C 179.218 130.404,176.970 124.511,175.981 122.705 C 175.771 122.323,175.600 121.786,175.600 121.511 C 175.600 121.236,175.165 120.109,174.633 119.006 C 174.102 117.903,172.731 115.020,171.588 112.600 C 168.807 106.717,168.027 105.151,166.065 101.516 C 163.327 96.445,163.617 96.018,168.850 97.418 C 177.560 99.749,179.926 100.387,182.200 101.016 C 183.520 101.381,185.500 101.914,186.600 102.200 C 187.700 102.486,189.680 103.023,191.000 103.393 C 192.320 103.763,193.670 104.096,194.000 104.133 C 194.505 104.189,194.641 103.063,194.857 97.000 C 195.147 88.871,195.344 87.594,196.627 85.558 C 199.503 80.997,204.896 79.027,209.997 80.675 M153.809 123.506 C 154.473 123.983,155.362 125.616,156.580 128.600 C 157.209 130.140,158.056 132.155,158.462 133.078 C 158.868 134.001,159.200 135.000,159.200 135.298 C 159.200 135.596,159.359 136.011,159.554 136.220 C 160.665 137.411,165.082 152.423,167.081 161.800 C 167.971 165.976,168.091 180.835,167.257 183.600 C 165.664 188.880,161.079 199.095,158.458 203.200 C 157.263 205.073,155.968 207.398,155.744 208.075 C 155.267 209.512,153.605 209.600,126.966 209.600 C 95.905 209.600,96.632 209.737,100.100 204.527 C 100.815 203.453,102.300 201.151,103.400 199.413 C 104.500 197.675,106.480 194.583,107.800 192.542 C 109.120 190.500,111.079 187.428,112.154 185.715 C 113.228 184.002,114.514 181.970,115.012 181.200 C 115.509 180.430,117.755 176.920,120.003 173.400 C 122.250 169.880,124.675 166.100,125.391 165.000 C 127.369 161.962,130.835 156.561,133.032 153.094 C 134.114 151.386,136.305 147.966,137.901 145.494 C 139.496 143.022,140.921 140.730,141.067 140.400 C 141.213 140.070,141.843 139.144,142.466 138.342 C 143.090 137.541,143.600 136.786,143.600 136.665 C 143.600 136.365,148.748 128.338,150.761 125.500 C 152.337 123.278,152.941 122.883,153.809 123.506 " stroke="none" fill="#000111" fill-rule="evenodd"></path></g></svg>